<svg id="Layer_1" data-name="Layer 1" xmlns="http://www.w3.org/2000/svg" viewBox="0 0 1000 1000"><defs><style>.cls-1{fill:#fff;}.cls-2{fill:#333;}</style></defs><title>circle</title><path class="cls-1" d="M500,980A480.13,480.13,0,0,1,313.17,57.71,480.13,480.13,0,0,1,686.83,942.29,477,477,0,0,1,500,980Z"/><path class="cls-2" d="M500,40A460.13,460.13,0,0,1,679,923.87,460.13,460.13,0,0,1,321,76.13,457.15,457.15,0,0,1,500,40m0-40C223.86,0,0,223.86,0,500s223.86,500,500,500,500-223.86,500-500S776.14,0,500,0Z"/></svg>